<?xml version="1.0" encoding="UTF-8"?>
<svg id="Layer_2" data-name="Layer 2" xmlns="http://www.w3.org/2000/svg" viewBox="0 0 371.81 62.44">
  <defs>
    <style>
      .cls-1 {
        fill: #eb2127;
      }

      .cls-2 {
        fill: #0956a4;
      }

      .cls-3 {
        fill: #231f20;
      }
    </style>
  </defs>
  <g id="Layer_1-2" data-name="Layer 1">
    <g>
      <g>
        <path class="cls-2" d="m0,61.58L9.43,29.14h8.91c2.46,0,4.31.1,5.52.3,1.21.2,2.25.54,3.1,1.01,1.55.84,2.63,1.99,3.26,3.46.63,1.46.81,3.21.54,5.25-.27,2.02-.95,3.9-2.06,5.62-1.1,1.73-2.48,3.06-4.1,3.99-.96.55-2.06.94-3.3,1.16-1.24.23-3.15.35-5.74.35h-3.64l-3.31,11.3H0Zm13.92-18.19h.82c2.81,0,4.74-.29,5.81-.88s1.69-1.6,1.88-3.02c.16-1.2-.15-2.07-.93-2.62-.78-.56-2.07-.83-3.89-.83h-1.55l-2.14,7.36Z"/>
        <path class="cls-2" d="m29.35,61.58l9.41-32.44h8.84l-9.41,32.44h-8.84Z"/>
        <path class="cls-2" d="m62.54,62.44c-2.32,0-4.39-.32-6.2-.95-1.82-.63-3.38-1.59-4.69-2.86-1.37-1.36-2.36-3.03-2.97-5.03s-.76-4.11-.47-6.36c.32-2.42.99-4.69,2.01-6.79s2.39-4.02,4.09-5.73c1.99-2.04,4.31-3.6,6.94-4.69s5.4-1.63,8.31-1.63c4.87,0,8.63,1.4,11.26,4.21,2.64,2.81,3.66,6.45,3.07,10.95-.32,2.41-1,4.67-2.04,6.79-1.04,2.12-2.41,4.03-4.09,5.73-2.06,2.08-4.38,3.66-6.96,4.74-2.58,1.08-5.34,1.62-8.28,1.62Zm5.44-26.1c-2.65,0-4.99.95-7.03,2.86s-3.24,4.27-3.61,7.09c-.33,2.5.12,4.49,1.35,5.98,1.23,1.49,3.03,2.24,5.41,2.24,2.6,0,4.94-.99,7.02-2.96,2.08-1.97,3.3-4.38,3.67-7.21.31-2.33-.18-4.25-1.46-5.75-1.28-1.5-3.06-2.25-5.35-2.25Z"/>
        <path class="cls-2" d="m84.35,61.58l9.39-32.44h9.91l4.74,16.02c.04.13.11.36.2.69.52,1.76.84,3.29.96,4.61l.11-.83c.08-.59.2-1.24.36-1.95s.38-1.58.64-2.6l4.6-15.93h8.66l-9.39,32.44h-9.53l-5.09-16.5c-.37-1.2-.65-2.19-.82-2.97s-.3-1.56-.39-2.35l-.12.91c-.08.59-.19,1.22-.33,1.87s-.35,1.53-.63,2.62l-4.62,16.42h-8.66Z"/>
        <path class="cls-2" d="m132.16,54.36h10.04l-2.08,7.22h-18.7l9.39-32.44h18.7l-2.16,7.49h-10.04l-1.52,5.3h9.31l-2.02,7.04h-9.35l-1.57,5.38Z"/>
        <path class="cls-2" d="m156.88,54.36h10.04l-2.08,7.22h-18.7l9.39-32.44h18.7l-2.16,7.49h-10.04l-1.52,5.3h9.31l-2.02,7.04h-9.35l-1.57,5.38Z"/>
        <path class="cls-2" d="m179.48,61.58h-8.62l9.39-32.44h8.64c2.6,0,4.52.09,5.77.28,1.24.19,2.31.5,3.17.94,1.54.77,2.64,1.85,3.3,3.24.66,1.4.86,3.07.6,5.02-.35,2.69-1.46,4.94-3.29,6.75-1.84,1.81-4.2,2.95-7.06,3.4l6.2,12.8h-9.88l-4.64-12.38-3.58,12.38Zm5.09-17.62h2.73c1.71,0,3.08-.39,4.1-1.17,1.02-.78,1.62-1.91,1.82-3.39.18-1.39-.11-2.4-.89-3.03-.77-.63-2.1-.94-4-.94h-1.29l-2.48,8.53Z"/>
      </g>
      <path class="cls-1" d="m248.19,30.68l-2.64,8.95c-1.1-1.08-2.35-1.9-3.74-2.45-1.39-.55-2.87-.83-4.45-.83-2.69,0-5.03.94-7.02,2.81-1.99,1.87-3.17,4.27-3.56,7.18-.35,2.63.12,4.66,1.39,6.1,1.28,1.44,3.24,2.16,5.92,2.16,1.15,0,2.36-.14,3.61-.42,1.25-.28,2.59-.7,4.01-1.26l-2.46,8.4c-1.15.35-2.41.62-3.77.81-1.36.19-2.82.28-4.37.28-4.62,0-8.14-1.43-10.54-4.3-2.41-2.87-3.3-6.67-2.67-11.41.3-2.29.95-4.47,1.94-6.55.99-2.08,2.29-3.96,3.9-5.66,1.89-1.98,4.11-3.49,6.68-4.54,2.57-1.05,5.36-1.58,8.37-1.58,1.71,0,3.35.19,4.91.58,1.56.38,3.05.96,4.49,1.73Z"/>
      <g>
        <path class="cls-1" d="m238.84,61.58l20.51-32.44h10.86l2.62,32.44h-8.79l-.51-6.11h-11.34l-3.91,6.11h-9.44Zm17.55-13.34h6.85l-.48-7.58c-.05-.75-.07-1.42-.07-2.02,0-.59.03-1.14.08-1.66-.43.88-.81,1.67-1.16,2.33-.35.67-.62,1.18-.81,1.5l-4.41,7.42Z"/>
        <path class="cls-1" d="m295.92,44.7c2.02.39,3.48,1.21,4.41,2.47.92,1.26,1.25,2.89.99,4.89-.22,1.66-.79,3.19-1.7,4.58-.91,1.41-2.06,2.5-3.45,3.3-1.03.59-2.26,1.01-3.72,1.26-1.46.25-3.85.37-7.18.37h-10.7l9.43-32.44h7.36c2.82,0,4.83.07,6.03.2,1.19.13,2.17.37,2.94.71,1.27.53,2.22,1.41,2.85,2.64.63,1.23.84,2.61.64,4.17-.28,2.14-1.12,3.91-2.53,5.3-1.4,1.4-3.19,2.24-5.35,2.54Zm-11.09,10.52h1.04c2.63,0,4.42-.32,5.37-.95.95-.64,1.53-1.75,1.74-3.35.16-1.18-.1-2.02-.78-2.53-.67-.5-1.89-.75-3.64-.75h-1.55l-2.17,7.58Zm3.91-13.52h.73c2.08,0,3.55-.28,4.42-.83.86-.55,1.38-1.49,1.56-2.8.12-.94-.11-1.63-.69-2.07-.59-.43-1.59-.65-3.01-.65h-1.22l-1.79,6.36Z"/>
        <path class="cls-1" d="m302.96,61.58l9.39-32.44h8.73l-7.17,24.68h10.73l-2.24,7.76h-19.43Z"/>
        <path class="cls-1" d="m336.95,54.36h10.04l-2.08,7.22h-18.7l9.39-32.44h18.7l-2.16,7.49h-10.04l-1.52,5.3h9.31l-2.02,7.04h-9.35l-1.57,5.38Z"/>
      </g>
      <path class="cls-3" d="m365.48,21.02c1.08,0,2.13.27,3.12.81s1.78,1.32,2.35,2.33c.57,1.02.86,2.07.86,3.18s-.28,2.15-.84,3.15c-.56,1-1.34,1.78-2.34,2.33-1,.56-2.05.84-3.15.84s-2.15-.28-3.15-.84c-1-.56-1.78-1.34-2.34-2.33-.56-1-.84-2.05-.84-3.15s.28-2.17.86-3.18c.57-1.02,1.35-1.79,2.35-2.33s2.04-.81,3.12-.81Zm0,1.24c-.87,0-1.7.22-2.5.65s-1.43,1.06-1.89,1.87-.69,1.67-.69,2.56.22,1.73.67,2.54c.45.8,1.08,1.43,1.88,1.88.8.46,1.65.68,2.53.68s1.73-.23,2.53-.68c.8-.45,1.43-1.08,1.88-1.88.45-.8.68-1.65.68-2.54s-.23-1.74-.69-2.56-1.09-1.44-1.89-1.87-1.64-.65-2.51-.65Zm-2.87,8.48v-6.72h1.36c1.28,0,1.99,0,2.15.02.45.04.8.13,1.05.27.25.13.46.35.63.64.17.29.25.61.25.96,0,.49-.16.9-.47,1.25s-.76.56-1.33.64c.2.08.36.16.47.25.11.09.26.26.46.51.05.07.21.34.5.82l.79,1.36h-1.69l-.56-1.09c-.38-.73-.69-1.19-.94-1.39-.25-.19-.56-.28-.94-.28h-.36v2.76h-1.36Zm1.36-3.82h.55c.79,0,1.28-.03,1.47-.09s.34-.16.45-.32.16-.32.16-.52-.05-.35-.16-.5c-.11-.15-.26-.25-.46-.32s-.68-.1-1.46-.1h-.55v1.84Z"/>
    </g>
    <g>
      <path class="cls-2" d="m9.3,23.56L15.59.52h13.54l-1.44,5.29h-7.28l-1.05,3.79h6.82l-1.38,4.97h-6.78l-2.45,8.99h-6.26Z"/>
      <path class="cls-2" d="m25.81,23.56L32.12.52h6.38l-6.31,23.04h-6.38Z"/>
      <path class="cls-2" d="m39.25,23.56l4.84-17.69h-5.25l1.5-5.35h16.54l-1.5,5.35h-5.01l-4.84,17.69h-6.29Z"/>
      <path class="cls-2" d="m58.77,23.56L73.09.52h7.84l2.38,23.04h-6.35l-.45-4.34h-8.19l-2.73,4.34h-6.82Zm12.47-9.48h4.94l-.47-5.38c-.05-.54-.07-1.01-.08-1.43,0-.42,0-.81.04-1.18-.29.63-.56,1.18-.8,1.66s-.43.83-.56,1.06l-3.07,5.27Z"/>
      <path class="cls-2" d="m83.28,23.56L89.57.52h7.15l3.66,11.38c.03.09.08.26.15.49.4,1.25.66,2.34.77,3.27l.07-.58c.05-.42.12-.88.23-1.39.11-.51.25-1.13.42-1.85l3.08-11.32h6.26l-6.29,23.04h-6.88l-3.93-11.73c-.29-.85-.5-1.55-.63-2.11-.13-.56-.24-1.11-.32-1.67l-.07.65c-.05.42-.12.86-.21,1.33s-.23,1.09-.41,1.87l-3.09,11.66h-6.26Z"/>
      <path class="cls-2" d="m108.71,23.56L114.96.52h4.03c3.01,0,5.15.08,6.41.24,1.27.16,2.28.44,3.03.84,1.64.86,2.82,2.12,3.55,3.79.72,1.66.96,3.64.7,5.93s-.88,4.15-1.88,5.81c-1,1.66-2.4,3.06-4.19,4.22-1.26.8-2.72,1.37-4.37,1.71-1.65.34-4.36.51-8.14.51h-5.41Zm7.68-5.13c.43.03.75.05.96.06s.4,0,.58,0c2.51,0,4.48-.62,5.92-1.86,1.44-1.24,2.3-3.05,2.57-5.45.22-1.95-.1-3.37-.94-4.26-.85-.89-2.34-1.33-4.46-1.33h-1.18l-3.44,12.83Z"/>
      <path class="cls-2" d="m140.88,23.56l6.29-23.04h13.54l-1.44,5.29h-7.28l-1.05,3.79h6.82l-1.38,4.97h-6.78l-2.45,8.99h-6.26Z"/>
      <path class="cls-2" d="m169.77,24.18c-1.67,0-3.17-.23-4.49-.68s-2.46-1.13-3.43-2.03c-1.01-.97-1.75-2.16-2.22-3.57-.47-1.42-.62-2.92-.44-4.52.19-1.72.64-3.33,1.35-4.82s1.66-2.85,2.87-4.07c1.41-1.45,3.06-2.56,4.94-3.33,1.88-.77,3.88-1.16,5.98-1.16,3.52,0,6.25,1,8.2,2.99,1.95,1.99,2.74,4.59,2.38,7.78-.19,1.71-.65,3.32-1.37,4.82-.72,1.51-1.67,2.86-2.87,4.07-1.46,1.48-3.11,2.6-4.96,3.37s-3.83,1.15-5.95,1.15Zm3.53-18.54c-1.91,0-3.59.68-5.03,2.03s-2.28,3.03-2.5,5.04c-.2,1.77.16,3.19,1.07,4.25.91,1.06,2.22,1.59,3.94,1.59,1.88,0,3.55-.7,5.02-2.1,1.47-1.4,2.32-3.11,2.54-5.12.19-1.66-.19-3.02-1.14-4.08-.95-1.07-2.25-1.6-3.9-1.6Z"/>
      <path class="cls-2" d="m190.42,23.56h-6.22l6.29-23.04h6.24c1.88,0,3.27.07,4.17.2s1.67.35,2.31.67c1.12.55,1.93,1.31,2.43,2.31.5.99.67,2.18.51,3.57-.22,1.91-.97,3.51-2.28,4.79-1.3,1.29-2.99,2.09-5.05,2.42l4.67,9.1h-7.14l-3.54-8.8-2.4,8.8Zm3.41-12.51h1.97c1.24,0,2.22-.28,2.94-.83s1.15-1.36,1.26-2.41c.11-.99-.12-1.7-.69-2.15-.57-.45-1.54-.67-2.9-.67h-.93l-1.66,6.06Z"/>
      <path class="cls-2" d="m219.46,11.02l11.76.02c-.56,4.1-2.07,7.32-4.53,9.65s-5.57,3.49-9.34,3.49-6.53-.99-8.49-2.98c-1.96-1.98-2.75-4.64-2.37-7.98.21-1.84.74-3.58,1.6-5.23.86-1.65,1.99-3.1,3.39-4.35,1.33-1.18,2.84-2.08,4.55-2.7,1.71-.62,3.52-.94,5.43-.94,2.24,0,4.15.44,5.72,1.32,1.58.88,2.87,2.24,3.89,4.06l-5.37,3.35c-.47-1.04-1.11-1.82-1.92-2.33-.81-.51-1.8-.77-2.96-.77-1.96,0-3.66.7-5.1,2.09s-2.28,3.16-2.52,5.29c-.2,1.76.15,3.18,1.04,4.24.89,1.07,2.17,1.6,3.84,1.6.62,0,1.21-.07,1.78-.21s1.1-.35,1.6-.62c.44-.25.84-.57,1.18-.95.34-.38.63-.83.87-1.35h-5.33l1.28-4.71Z"/>
      <path class="cls-2" d="m237.62,18.43h7.25l-1.39,5.13h-13.5l6.29-23.04h13.5l-1.45,5.32h-7.25l-1.02,3.76h6.72l-1.35,5.01h-6.75l-1.05,3.82Z"/>
      <path class="cls-2" d="m249.76,23.56l4.84-17.69h-5.25l1.5-5.35h16.54l-1.5,5.35h-5.01l-4.84,17.69h-6.29Z"/>
    </g>
  </g>
</svg>